<?xml version="1.0" standalone="no"?>
<!DOCTYPE svg PUBLIC "-//W3C//DTD SVG 20010904//EN"
 "http://www.w3.org/TR/2001/REC-SVG-20010904/DTD/svg10.dtd">
<svg version="1.0" xmlns="http://www.w3.org/2000/svg"
 width="1024.000000pt" height="1024.000000pt" viewBox="0 0 1024.000000 1024.000000"
 preserveAspectRatio="xMidYMid meet">

<g transform="translate(0.000000,1024.000000) scale(0.100000,-0.100000)"
fill="#000000" stroke="none">
<path d="M0 5120 l0 -5120 5120 0 5120 0 0 5120 0 5120 -5120 0 -5120 0 0
-5120z m4030 1936 c0 -2 -8 -10 -17 -17 -16 -13 -17 -12 -4 4 13 16 21 21 21
13z m-453 -402 c-3 -3 -12 -4 -19 -1 -8 3 -5 6 6 6 11 1 17 -2 13 -5z m3600
-1186 c-3 -8 -6 -5 -6 6 -1 11 2 17 5 13 3 -3 4 -12 1 -19z m-3616 -958 c57
-16 102 -51 127 -100 20 -40 22 -57 20 -155 l-3 -110 -94 -3 c-108 -3 -111 -1
-111 70 0 55 -23 78 -80 78 -60 0 -79 -30 -82 -125 -1 -44 3 -89 9 -100 6 -11
66 -53 134 -94 135 -82 183 -120 205 -162 20 -39 20 -375 1 -422 -22 -50 -63
-93 -113 -117 -42 -19 -60 -21 -179 -18 -126 3 -134 4 -181 33 -75 46 -94 92
-94 227 l0 109 103 -3 102 -3 5 -63 c6 -73 15 -82 83 -82 74 0 87 19 87 130 0
111 4 106 -180 217 -199 120 -184 94 -188 341 -2 113 -1 216 2 228 14 56 82
108 159 124 60 11 226 12 268 0z m1089 -14 c49 -25 88 -64 113 -111 21 -39 22
-51 25 -489 l3 -449 -26 -53 c-50 -101 -134 -144 -283 -144 -109 0 -152 14
-216 70 -78 69 -76 54 -76 553 0 481 1 490 55 562 15 19 50 46 78 60 49 25 59
26 172 23 92 -3 128 -8 155 -22z m-3027 -19 c21 -16 47 -47 58 -70 20 -39 22
-58 23 -292 1 -243 0 -251 -22 -297 -42 -86 -100 -120 -241 -144 -47 -8 -96
-17 -108 -19 -23 -5 -23 -7 -23 -189 0 -109 5 -196 11 -215 6 -18 10 -34 8
-36 -2 -2 -60 -7 -128 -11 l-124 -7 9 24 c4 13 10 290 11 616 3 514 2 597 -12
629 -8 20 -15 38 -15 41 0 2 116 3 258 1 l259 -3 36 -28z m683 -17 c6 -25 14
-76 18 -114 l7 -69 -151 6 c-114 5 -152 3 -155 -6 -2 -7 -6 -78 -8 -159 l-5
-148 135 0 135 0 -7 -97 c-4 -54 -9 -101 -12 -105 -2 -5 -57 -8 -123 -8 -89 0
-119 -3 -123 -13 -7 -18 -8 -227 -1 -249 5 -16 22 -18 165 -18 l159 0 0 -27
c0 -15 -5 -66 -11 -113 l-11 -87 -261 -6 c-143 -4 -263 -5 -265 -3 -2 2 1 21
7 43 13 47 15 1130 2 1186 l-9 37 252 -2 251 -3 11 -45z m726 -40 c1 -49 2
-100 2 -112 1 -20 -3 -21 -99 -22 l-100 -1 -3 -465 c-2 -308 1 -480 8 -509 6
-24 10 -45 8 -46 -2 -2 -57 -5 -123 -7 l-120 -3 5 25 c3 14 5 246 5 515 l0
490 -107 -1 -108 -1 0 107 c0 59 3 110 7 113 3 4 145 7 315 7 l308 0 2 -90z
m2358 68 c26 -14 57 -41 75 -66 l30 -44 3 -173 c3 -160 2 -176 -19 -219 -12
-26 -33 -55 -47 -66 l-25 -20 41 -44 c23 -25 44 -56 47 -69 4 -14 5 -108 3
-209 -3 -182 -3 -185 -31 -226 -15 -23 -46 -52 -70 -64 -39 -22 -56 -23 -265
-26 -123 -2 -230 -1 -237 2 -10 4 -10 15 1 63 20 83 19 1090 0 1146 l-14 37
232 0 c220 0 234 -1 276 -22z m745 -12 c60 -46 76 -96 73 -223 l-3 -108 -95 0
-95 0 -7 55 c-8 66 -32 90 -91 90 -66 0 -77 -18 -77 -124 0 -50 4 -97 9 -104
4 -7 73 -53 152 -102 85 -52 156 -103 174 -125 l30 -37 0 -197 0 -198 -30 -49
c-21 -33 -46 -58 -80 -77 -49 -27 -53 -27 -190 -25 -113 2 -147 7 -178 22 -81
40 -106 109 -97 261 l5 80 95 0 95 0 5 -58 c6 -70 24 -87 87 -87 33 0 50 6 68
25 23 22 25 32 25 110 0 106 1 105 -179 210 -72 43 -147 95 -166 116 l-35 39
0 194 c0 113 4 207 11 223 13 37 66 92 104 109 22 10 71 13 191 11 160 -2 161
-2 199 -31z m406 -591 l0 -620 -117 -3 -117 -3 9 23 c5 13 10 278 11 591 3
492 1 571 -12 597 -8 16 -15 32 -15 35 0 3 54 4 120 3 l120 -3 1 -620z m618
611 c43 -23 99 -91 112 -138 9 -31 13 -163 13 -478 1 -480 2 -468 -64 -544
-64 -72 -80 -76 -340 -76 -126 0 -230 3 -230 8 0 4 7 29 15 56 12 41 15 137
15 566 0 429 -3 525 -15 566 -8 27 -15 50 -15 52 0 1 108 2 240 2 190 0 247
-3 269 -14z m461 -611 l0 -625 -116 0 -115 0 8 23 c4 12 8 283 8 602 0 319 -4
590 -8 603 l-8 22 115 0 116 0 0 -625z m622 570 c9 -28 51 -280 93 -560 42
-281 84 -543 94 -582 l19 -73 -129 0 -128 0 5 93 c4 57 2 108 -5 135 l-12 42
-104 0 c-90 0 -106 -2 -114 -18 -12 -23 -17 -157 -7 -205 l8 -38 -117 3 c-78
2 -119 7 -122 14 -2 7 5 56 16 110 12 55 35 189 52 299 16 110 48 319 70 465
33 215 39 274 32 313 -5 26 -7 49 -4 52 2 3 79 4 170 3 l166 -3 17 -50z m610
-275 c61 -179 114 -329 119 -334 5 -6 9 64 9 175 0 101 1 229 2 284 0 55 -2
124 -6 153 l-8 53 109 -3 108 -3 3 -654 2 -653 -107 7 c-60 4 -111 9 -115 12
-5 2 -8 12 -8 22 0 23 -195 604 -215 639 -13 24 -15 -5 -11 -288 2 -173 7
-327 11 -343 l7 -27 -118 6 c-66 4 -122 9 -126 13 -4 3 -2 26 3 52 12 56 8
1176 -5 1202 -8 16 0 17 114 15 l123 -3 109 -325z m-4767 -310 l0 -85 -152 -3
-153 -3 0 84 c0 46 3 87 7 90 3 4 72 6 152 4 l146 -2 0 -85z m-1300 -991 c51
-25 68 -60 73 -151 5 -100 -11 -148 -60 -177 -72 -45 -160 -36 -214 20 -27 28
-29 37 -33 120 -3 97 6 133 44 169 42 40 130 48 190 19z m370 7 c59 -11 86
-88 47 -136 -18 -22 -17 -23 10 -50 40 -41 39 -96 -3 -136 -30 -28 -33 -29
-137 -29 l-107 0 -3 170 c-1 93 -1 174 1 180 5 11 135 11 192 1z m362 6 c6 -4
15 -20 18 -35 l7 -27 -54 6 c-66 8 -98 -6 -98 -41 0 -20 7 -26 43 -35 77 -19
107 -38 124 -78 13 -32 14 -42 2 -77 -17 -50 -63 -75 -134 -75 -75 0 -92 8
-97 41 l-5 30 56 -6 c62 -6 103 8 109 38 5 25 -26 57 -56 57 -37 0 -88 28
-101 56 -37 82 21 154 124 154 28 0 55 -4 62 -8z m231 -179 l2 -182 -37 3 -38
2 -3 169 c-1 93 0 175 3 183 3 8 17 12 37 10 l33 -3 3 -182z m352 159 c40 -30
50 -60 50 -155 0 -150 -31 -182 -180 -182 -52 0 -96 3 -97 8 -2 4 -3 86 -3
184 l0 176 102 -6 c77 -5 109 -11 128 -25z m225 -157 l0 -180 -35 0 -35 0 -3
183 -2 183 37 -3 38 -3 0 -180z m371 8 c31 -98 59 -181 61 -185 2 -5 -14 -8
-37 -8 -37 0 -41 3 -47 30 -7 39 -12 41 -82 45 l-59 4 -15 -40 c-13 -34 -20
-39 -47 -39 -28 0 -31 3 -25 23 4 12 30 95 58 185 l51 162 42 0 43 0 57 -177z
m229 169 c6 -4 39 -53 74 -109 34 -57 67 -103 72 -103 5 0 9 50 9 111 l0 110
33 -3 32 -3 0 -180 0 -180 -34 0 c-32 0 -37 5 -105 114 l-71 115 -3 -118 -3
-117 -32 3 -32 3 -3 183 -2 182 27 0 c16 0 33 -4 38 -8z m745 -11 c21 -41 14
-48 -50 -43 -64 5 -90 -6 -90 -39 0 -21 21 -34 72 -43 21 -4 51 -18 68 -32 24
-21 30 -34 30 -64 0 -64 -15 -89 -67 -112 -35 -16 -58 -19 -96 -14 -56 6 -63
10 -72 46 l-6 25 75 -3 c67 -3 76 -2 86 18 18 34 3 58 -43 70 -23 6 -50 13
-59 16 -29 8 -58 54 -58 91 0 71 41 102 137 103 52 0 64 -3 73 -19z m380 -16
c0 -35 0 -35 -45 -35 l-45 0 0 -150 0 -150 -35 0 -35 0 0 150 0 150 -45 0
c-44 0 -45 0 -45 34 l0 34 125 1 125 2 0 -36z m170 -98 c0 -157 8 -177 70
-177 45 0 70 20 70 58 1 15 2 77 3 137 l2 110 35 0 35 0 3 -127 c3 -147 -8
-186 -60 -218 -40 -24 -125 -27 -167 -5 -49 25 -61 67 -61 219 l0 136 35 0 35
0 0 -133z m545 119 c52 -22 67 -54 72 -154 3 -70 1 -94 -14 -121 -32 -60 -56
-71 -168 -74 l-100 -2 -3 183 -2 182 90 0 c56 0 104 -5 125 -14z m249 -8 c-1
-10 -2 -93 -3 -184 l-1 -165 -32 3 -33 3 -3 183 -2 183 37 -3 c29 -2 38 -7 37
-20z m341 6 c49 -23 65 -65 65 -174 0 -60 -5 -101 -15 -119 -41 -80 -218 -82
-259 -2 -22 41 -22 200 -1 242 33 64 134 89 210 53z m382 -21 l13 -33 -58 6
c-69 8 -105 -6 -100 -38 4 -25 20 -35 71 -43 94 -15 134 -120 69 -184 -31 -32
-93 -44 -157 -33 -33 6 -40 12 -45 37 l-6 30 77 -4 c77 -3 78 -3 85 23 10 41
-1 54 -65 72 -70 19 -91 38 -98 91 -4 29 0 44 17 66 30 38 54 47 124 44 57 -2
60 -3 73 -34z"/>
<path d="M4444 4291 c-53 -23 -54 -27 -54 -418 l0 -362 22 -15 c14 -10 44 -16
79 -16 98 0 94 -17 97 400 l3 358 -23 27 c-25 29 -87 42 -124 26z"/>
<path d="M1317 4293 c-4 -3 -7 -95 -7 -204 0 -218 -3 -209 66 -209 48 0 90 24
111 63 14 26 17 57 16 172 -1 138 -2 140 -28 162 -21 19 -38 23 -89 23 -34 0
-66 -3 -69 -7z"/>
<path d="M5117 4293 c-4 -3 -7 -69 -7 -145 l0 -138 65 0 c57 0 69 3 96 28 27
24 32 36 36 93 7 84 -9 134 -47 154 -29 15 -131 21 -143 8z"/>
<path d="M5110 3620 l0 -150 55 0 c75 0 119 20 133 59 6 18 9 65 6 114 -5 71
-9 85 -30 105 -21 18 -37 22 -95 22 l-69 0 0 -150z"/>
<path d="M6880 3886 l0 -416 63 0 c73 0 122 25 134 67 5 15 8 180 8 365 l0
338 -28 27 c-24 24 -36 28 -102 31 l-75 4 0 -416z"/>
<path d="M8056 4118 c-22 -103 -64 -397 -57 -403 2 -3 40 -5 83 -5 71 0 78 2
78 20 0 23 -46 331 -62 413 -6 31 -14 57 -18 57 -3 0 -15 -37 -24 -82z"/>
<path d="M2662 2830 c-12 -5 -27 -21 -32 -35 -15 -40 -12 -142 5 -175 14 -27
20 -30 65 -30 30 0 54 6 64 15 35 35 32 179 -5 216 -20 20 -59 24 -97 9z"/>
<path d="M3039 2828 c0 -2 -1 -20 -2 -41 l-2 -37 47 0 c37 0 50 4 58 20 19 36
-3 60 -55 60 -25 0 -45 -1 -46 -2z"/>
<path d="M3034 2676 c-3 -8 -4 -29 -2 -48 3 -32 5 -33 51 -36 27 -2 55 2 63 9
17 14 18 61 2 77 -17 17 -107 16 -114 -2z"/>
<path d="M3942 2719 l3 -124 36 -3 c24 -2 43 4 62 18 25 20 27 26 27 104 0
103 -9 117 -79 124 l-52 5 3 -124z"/>
<path d="M4580 2780 c-6 -25 -15 -57 -20 -72 -11 -33 -6 -38 40 -38 l37 0 -14
62 c-21 92 -29 100 -43 48z"/>
<path d="M5583 2863 c9 -2 25 -2 35 0 9 3 1 5 -18 5 -19 0 -27 -2 -17 -5z"/>
<path d="M5519 2833 c-13 -16 -12 -17 4 -4 16 13 21 21 13 21 -2 0 -10 -8 -17
-17z"/>
<path d="M5497 2739 c12 -12 24 -21 27 -18 2 2 -8 13 -22 23 l-27 19 22 -24z"/>
<path d="M5558 2713 c7 -3 16 -2 19 1 4 3 -2 6 -13 5 -11 0 -14 -3 -6 -6z"/>
<path d="M5659 2583 c-13 -16 -12 -17 4 -4 9 7 17 15 17 17 0 8 -8 3 -21 -13z"/>
<path d="M5543 2553 c15 -2 37 -2 50 0 12 2 0 4 -28 4 -27 0 -38 -2 -22 -4z"/>
<path d="M5978 2853 c7 -3 16 -2 19 1 4 3 -2 6 -13 5 -11 0 -14 -3 -6 -6z"/>
<path d="M5913 2553 c9 -2 23 -2 30 0 6 3 -1 5 -18 5 -16 0 -22 -2 -12 -5z"/>
<path d="M6190 2574 c0 -7 52 -25 57 -20 2 2 -10 8 -26 14 -17 6 -31 9 -31 6z"/>
<path d="M6370 2570 c-9 -6 -10 -10 -3 -10 6 0 15 5 18 10 8 12 4 12 -15 0z"/>
<path d="M6622 2718 l3 -123 47 -3 c38 -2 50 1 68 20 19 21 21 32 18 111 -4
104 -14 117 -90 117 l-49 0 3 -122z"/>
<path d="M6774 2578 l-19 -23 23 19 c12 11 22 21 22 23 0 8 -8 2 -26 -19z"/>
<path d="M6578 2553 c7 -3 16 -2 19 1 4 3 -2 6 -13 5 -11 0 -14 -3 -6 -6z"/>
<path d="M6638 2553 c18 -2 45 -2 60 0 15 2 0 4 -33 4 -33 0 -45 -2 -27 -4z"/>
<path d="M6963 2553 c9 -2 23 -2 30 0 6 3 -1 5 -18 5 -16 0 -22 -2 -12 -5z"/>
<path d="M7228 2853 c7 -3 16 -2 19 1 4 3 -2 6 -13 5 -11 0 -14 -3 -6 -6z"/>
<path d="M7224 2826 c-16 -12 -20 -29 -22 -104 -4 -81 -2 -92 17 -111 28 -28
84 -28 111 -1 17 17 20 33 20 103 0 102 -14 127 -69 127 -20 0 -46 -6 -57 -14z"/>
<path d="M7160 2590 c6 -11 13 -20 16 -20 2 0 0 9 -6 20 -6 11 -13 20 -16 20
-2 0 0 -9 6 -20z"/>
<path d="M7218 2553 c6 -2 18 -2 25 0 6 3 1 5 -13 5 -14 0 -19 -2 -12 -5z"/>
<path d="M7595 2722 c31 -14 83 -24 65 -13 -8 5 -31 11 -50 15 -24 4 -28 3
-15 -2z"/>
<path d="M7725 2589 c-4 -6 -17 -14 -29 -19 -14 -6 -16 -9 -5 -9 9 -1 24 8 34
19 10 11 15 20 12 20 -3 0 -9 -5 -12 -11z"/>
<path d="M7593 2553 c15 -2 39 -2 55 0 15 2 2 4 -28 4 -30 0 -43 -2 -27 -4z"/>
</g>
</svg>
